<svg width="100" height="100" viewBox="0 0 100 100" fill="none" xmlns="http://www.w3.org/2000/svg">
<path d="M15.1953 29.9817C14.941 30.9365 15.0422 31.6989 15.04 32.4498C15.0242 35.5407 15.067 38.6316 15.0175 41.7202C14.9954 42.0751 15.0542 42.4305 15.1893 42.7585C15.3243 43.0865 15.532 43.3784 15.7961 43.6114C21.0712 48.5522 26.3441 53.4961 31.6147 58.443C33.127 59.8625 34.6371 61.2866 36.1449 62.7153C36.5545 63.1045 36.8043 66.026 36.4982 66.5572C36.1921 67.0883 35.9874 66.6075 35.8231 66.461C33.3723 64.1715 30.9418 61.8521 28.4978 59.5512C24.1049 55.4178 19.7052 51.2844 15.2988 47.151C14.9117 47.5127 15.031 47.9523 15.0287 48.3438C15.0287 51.7782 15.0512 55.2125 15.0062 58.6468C14.9829 58.9644 15.0485 59.2823 15.1955 59.5635C15.3425 59.8447 15.5648 60.0778 15.8367 60.2357C22.4305 64.7019 29.0207 69.1733 35.607 73.6502C36.4442 74.218 36.9821 76.1778 36.5567 77.1852C36.2664 77.8721 35.8141 77.3913 35.562 77.2287C34.0992 76.2763 32.6747 75.2597 31.2321 74.2706C26.1746 70.8104 21.12 67.347 16.0685 63.8807C15.8096 63.7021 15.5576 63.4754 15.2763 63.5739C14.8397 63.7273 15.0512 64.1669 15.0512 64.476C15.0355 67.1845 15.0512 69.8907 15.0287 72.5993C15.0287 73.3159 15.2358 73.7211 15.9154 74.092C22.4418 77.6294 28.9434 81.2423 35.4765 84.7796C36.3339 85.2375 36.7413 85.7664 36.6017 86.7257C36.4622 87.685 36.9123 87.8705 37.7607 87.827C45.8699 87.3874 53.9829 86.9577 62.0996 86.538C69.3641 86.1579 76.6241 85.7687 83.8908 85.4321C84.7303 85.3932 84.9801 85.1528 84.9621 84.3126C84.9171 82.0642 84.9373 79.8136 84.9621 77.563C84.9621 76.8097 84.8045 76.4297 83.9291 76.567C82.1557 76.8418 80.3689 77.041 78.5842 77.2287C71.9544 77.9263 65.323 78.6131 58.6901 79.2893C53.9236 79.7861 49.1481 80.2051 44.3974 80.8187C42.2144 81.1026 40.0089 81.1644 37.8485 81.5972C36.9191 81.7849 36.5815 81.4506 36.5995 80.4707C36.6332 78.7856 36.5792 78.7535 38.2716 78.5658C42.4012 78.1079 46.5376 77.6912 50.6672 77.2287C53.7886 76.8784 56.9145 76.5762 60.0359 76.2396C62.8535 75.9351 65.662 75.6489 68.4864 75.3238C71.4548 74.9895 74.4344 74.7675 77.3892 74.3851C79.6397 74.0943 81.9239 73.9799 84.1767 73.625C84.7258 73.5403 84.9666 73.3548 84.9621 72.7756C84.9441 70.1815 84.9621 67.5875 84.9621 64.9911C84.9621 64.4416 84.8315 64.1806 84.1632 64.2905C79.3967 65.0712 74.6167 65.7627 69.8547 66.5594C64.9622 67.3791 60.0629 68.1369 55.1636 68.9085C51.3063 69.5175 47.4535 70.1563 43.5962 70.7653C41.6405 71.0744 39.6871 71.411 37.745 71.7544C36.865 71.9101 36.6085 71.6125 36.6197 70.747C36.6625 68.9543 36.64 69.0047 38.4201 68.7162C42.6487 68.0293 46.8639 67.2715 51.0925 66.5755C54.3422 66.0397 57.6031 65.5727 60.855 65.0484C64.5481 64.4531 68.2343 63.8212 71.9251 63.2167C73.2754 62.9878 74.6504 62.8252 76.0097 62.6077C78.8385 62.1498 81.6651 61.6804 84.494 61.234C84.9688 61.1584 84.9666 60.8035 84.9666 60.467C84.9666 57.1105 84.9666 53.754 84.9666 50.393C84.9666 49.7382 84.782 49.5504 84.0866 49.7061C80.882 50.4456 77.7066 51.3088 74.5266 52.1399C72.3324 52.7192 70.109 53.1771 67.9103 53.7426C65.1872 54.4295 62.4934 55.2583 59.7568 55.8787C56.4486 56.6274 53.1787 57.5249 49.8953 58.3652C46.8706 59.139 43.855 59.9427 40.8326 60.7142C39.6849 61.0073 38.5236 61.2431 37.3714 61.5133C37.2836 61.5452 37.1881 61.5474 37.0989 61.5198C37.0098 61.4922 36.9317 61.4361 36.8763 61.3599C36.4262 60.7028 36.6512 59.9587 36.6512 59.2512C36.6512 58.704 37.1013 58.5094 37.5672 58.3972C40.9429 57.573 44.3186 56.7785 47.674 55.9245C52.1165 54.7981 56.5431 53.6167 60.9811 52.4788C63.9179 51.7255 66.875 51.0501 69.8007 50.2602C73.1764 49.3444 76.5791 48.6346 79.9278 47.6432C81.3006 47.238 82.7251 46.9564 84.1271 46.6152C84.7055 46.4733 84.9576 46.297 84.9531 45.6674C84.9351 42.578 84.9351 39.4887 84.9531 36.3993C84.9531 35.6964 84.728 35.5224 84.0799 35.7399C80.2653 37.0129 76.444 38.2584 72.6272 39.5337C66.7625 41.4844 60.8993 43.4366 55.0376 45.3903C53.0437 46.052 51.0025 46.5809 49.0333 47.3181C45.8647 48.5041 42.6037 49.4039 39.4238 50.551C38.8755 50.7764 38.3122 50.9623 37.7382 51.1073C36.613 51.3363 36.5185 51.9567 36.559 52.8932C36.586 53.4999 36.91 54.4317 36.2754 54.6515C35.7083 54.8507 35.391 53.9097 35.0039 53.4518C28.8016 46.0978 22.6053 38.7278 16.415 31.3417C16.0594 30.9159 15.6769 30.5129 15.1953 29.9817Z" fill="#FEBD00"/>
<path d="M79.1514 4.01603H75.3661C70.6806 4.01603 65.9929 4.02747 61.3074 4.01603C60.5665 4.00626 59.8435 4.24794 59.2527 4.70289C54.4277 8.15323 49.5757 11.5578 44.7349 14.9875C42.444 16.6108 40.1755 18.2661 37.8867 19.894C37.5987 20.0978 37.2926 20.4549 36.9033 20.258C36.514 20.0611 36.6918 19.5826 36.6085 19.23C36.0976 17.0664 37.7787 16.32 39.0705 15.4019C44.062 11.8577 49.0918 8.36845 54.0856 4.8311C54.2814 4.69144 54.6392 4.53804 54.601 4H51.8554C40.0089 4 28.1602 4.0229 16.3138 4C15.247 4 15.0085 4.34114 15.0152 5.35083C15.0535 11.6448 15.04 17.9433 15.0152 24.2304C14.9838 24.7923 15.1696 25.3445 15.5328 25.769C19.1861 30.084 22.8281 34.412 26.4589 38.753C29.6005 42.4864 32.7452 46.2153 35.8928 49.9397C36.0301 50.1045 36.0504 50.3976 36.3429 50.3747C36.5837 50.3541 36.6377 50.1297 36.5995 49.9442C36.2056 47.9844 37.835 47.9111 38.9062 47.6089C42.1581 46.6931 45.3088 45.4819 48.5202 44.4608C51.5854 43.4877 54.6888 42.6292 57.7044 41.5256C61.7777 40.0443 65.9141 38.7781 70.0077 37.3701C73.0908 36.3077 76.192 35.298 79.2909 34.2792C80.8662 33.764 82.4415 33.3061 84.0169 32.7681C84.5682 32.5804 85.0138 32.3102 84.9958 31.486C84.9306 28.4752 84.9418 25.4622 84.9958 22.4491C85.0093 21.5333 84.6718 21.4555 83.9629 21.7508C80.2226 23.3077 76.4808 24.8593 72.7375 26.4055L59.4733 31.9004C53.4465 34.3944 47.419 36.8855 41.3907 39.3734C40.1305 39.8931 38.8612 40.39 37.5897 40.8822C36.9281 41.1364 36.649 40.9463 36.6445 40.1633C36.6445 38.2035 36.5927 38.176 38.3076 37.4273C41.4582 36.0536 44.6629 34.7966 47.8631 33.5351C50.9035 32.34 53.8808 30.98 56.901 29.7299C59.579 28.6194 62.2818 27.5754 64.9644 26.481C68.025 25.2309 71.0744 23.9625 74.1283 22.6987C77.3915 21.3547 80.6547 20.0039 83.9178 18.6737C84.5457 18.4195 84.9958 18.1654 84.9891 17.3274C84.9508 13.3619 84.9643 9.39416 84.9891 5.42181C84.9891 4.58155 84.9373 4.35259 84.0326 4.85858C79.6105 7.33357 75.2108 9.84978 70.8066 12.3568C62.6082 17.0206 54.3647 21.5997 46.1437 26.22C43.3734 27.7769 40.6121 29.3498 37.844 30.9136C36.8785 31.4585 36.829 31.3257 36.6107 30.2565C36.1741 28.1226 37.718 27.509 39.048 26.7809C47.1722 22.2904 55.2596 17.7304 63.3103 13.1009C68.2231 10.2917 73.2124 7.60603 78.1634 4.85858C78.4087 4.70747 78.6337 4.44875 79.1514 4.01603Z" fill="#FEBD00"/>
<path d="M60.1709 95.9434C68.0813 95.9434 75.9917 95.932 83.9021 95.9595C84.7258 95.9595 85.0273 95.7488 84.9981 94.8719C84.9321 93.0815 84.9261 91.2896 84.9801 89.4961C85.0048 88.5803 84.755 88.2025 83.7806 88.2964C80.0876 88.6581 76.372 88.6421 72.6768 88.8893C67.2599 89.2511 61.8385 89.4503 56.4239 89.7868C53.244 89.9837 50.0393 89.8738 46.8909 90.2722C43.7425 90.6706 40.6053 90.2928 37.4974 90.8515C37.0338 90.9339 36.5815 90.6592 36.6715 90.2013C36.9596 88.7337 35.9086 88.3399 34.9791 87.8316C28.6958 84.3957 22.411 80.9614 16.1247 77.5286C15.238 77.0433 15.04 77.144 15.0377 78.1903C15.0265 80.5554 15.0377 82.9205 15.0377 85.2879C15.0377 87.5179 15.0737 87.4424 17.0632 88.2391C21.8387 90.144 26.6254 92.0604 31.3424 94.1324C33.9664 95.2772 36.5477 96.0625 39.4778 95.9961C46.371 95.8358 53.2732 95.9434 60.1709 95.9434Z" fill="#FEBD00"/>
<path d="M21.3931 95.9549H26.6682C26.8752 95.9549 27.1835 96.1037 27.2465 95.8083C27.3208 95.4786 27.0215 95.458 26.7627 95.3504C23.7876 94.1164 20.8282 92.8457 17.8621 91.591C17.1599 91.2934 16.454 91.0034 15.7444 90.721C15.1908 90.5035 15.0692 90.9041 15.0692 91.3025C15.0467 92.635 15.0692 93.9653 15.0692 95.2978C15.0692 96.0304 15.5981 95.9182 16.0212 95.9228C17.8216 95.9366 19.6084 95.9228 21.4043 95.9228L21.3931 95.9549Z" fill="#FEBD00"/>
</svg>
