<svg width="30" height="28" viewBox="0 0 30 28" fill="none" xmlns="http://www.w3.org/2000/svg">
<g clip-path="url(#clip0_9014_650)">
<path d="M27.4615 14C27.4615 21.1644 21.5534 27 14.2308 27C6.90814 27 1 21.1644 1 14C1 6.83565 6.90814 1 14.2308 1C21.5534 1 27.4615 6.83565 27.4615 14Z" stroke="#FEBD00" stroke-width="2"/>
<path d="M27.7639 9.6662C27.3609 8.44736 26.7939 7.30216 26.0866 6.2558L13.6299 19.0199L13.6549 20.4403L14.2429 20.4367L27.7639 9.6662Z" fill="#926D00"/>
<path d="M29.9999 4.54054C29.8177 3.61153 28.0769 3.02711 28.0769 3.02711C27.7305 2.69027 25.7309 4.58269 25.3846 4.91953L13.9023 16.649L8.8461 10.9734C8.49915 10.6365 7.6543 10.2582 7.30764 10.595L5.66237 11.6766C5.31599 12.0132 5.31599 12.5592 5.66237 12.8957L13.1702 20.1928C13.3703 20.3874 13.6416 20.4658 13.9023 20.4356C14.163 20.4655 14.4342 20.3874 14.6343 20.1928L28.4843 6.73097C28.8306 6.39413 30.1992 5.55661 29.9999 4.54054Z" fill="white"/>
<path d="M14.634 20.192L28.484 6.73017C29.6153 6.05408 30.3463 4.8774 29.9999 4.54056C29.6536 4.20372 28.0699 5.10813 28.0699 5.10813L13.8229 18.8939L5.97659 11.3698L5.66237 11.6755C5.31599 12.0121 5.31599 12.5581 5.66237 12.8946L13.17 20.192C13.37 20.3866 13.6413 20.465 13.902 20.4348C14.1627 20.465 14.4339 20.3869 14.634 20.192Z" fill="#FEBD00"/>
</g>
<defs>
<clipPath id="clip0_9014_650">
<rect width="30" height="28" fill="white"/>
</clipPath>
</defs>
</svg>
