<svg width="171" height="60" viewBox="0 0 171 60" fill="none" xmlns="http://www.w3.org/2000/svg">
<path d="M60.464 23C60.304 23 60.168 22.944 60.056 22.832C59.96 22.72 59.912 22.584 59.912 22.424C59.912 22.312 59.936 22.224 59.984 22.16L65.048 14.336L60.44 6.992C60.36 6.88 60.32 6.776 60.32 6.68C60.32 6.552 60.36 6.44 60.44 6.344C60.52 6.248 60.648 6.2 60.824 6.2H62.096C62.304 6.2 62.472 6.232 62.6 6.296C62.728 6.36 62.832 6.456 62.912 6.584L67.184 13.424H69.728V6.752C69.728 6.592 69.776 6.464 69.872 6.368C69.984 6.256 70.12 6.2 70.28 6.2H71.48C71.656 6.2 71.792 6.256 71.888 6.368C71.984 6.464 72.032 6.592 72.032 6.752V13.424H74.552L78.824 6.584C78.904 6.456 79.008 6.36 79.136 6.296C79.28 6.232 79.448 6.2 79.64 6.2H80.96C81.12 6.2 81.24 6.248 81.32 6.344C81.4 6.44 81.44 6.552 81.44 6.68C81.44 6.776 81.4 6.88 81.32 6.992L76.712 14.336L81.8 22.16C81.832 22.224 81.848 22.312 81.848 22.424C81.848 22.584 81.792 22.72 81.68 22.832C81.584 22.944 81.456 23 81.296 23H79.952C79.776 23 79.64 22.968 79.544 22.904C79.448 22.824 79.368 22.736 79.304 22.64L74.672 15.56H72.032V22.472C72.032 22.616 71.984 22.744 71.888 22.856C71.792 22.952 71.656 23 71.48 23H70.28C70.12 23 69.984 22.952 69.872 22.856C69.776 22.744 69.728 22.608 69.728 22.448V15.56H67.064L62.456 22.64C62.392 22.736 62.312 22.824 62.216 22.904C62.136 22.968 62.008 23 61.832 23H60.464ZM85.0931 23C84.9491 23 84.8211 22.952 84.7091 22.856C84.6131 22.744 84.5651 22.624 84.5651 22.496V11.072C84.5651 10.912 84.6131 10.784 84.7091 10.688C84.8211 10.576 84.9571 10.52 85.1171 10.52H86.2691C86.4291 10.52 86.5571 10.576 86.6531 10.688C86.7491 10.784 86.7971 10.912 86.7971 11.072V21.248L86.1731 20.6L93.4451 10.88C93.5251 10.784 93.6131 10.704 93.7091 10.64C93.8051 10.56 93.9251 10.52 94.0691 10.52H95.1731C95.3011 10.52 95.4131 10.568 95.5091 10.664C95.6211 10.76 95.6771 10.872 95.6771 11V22.448C95.6771 22.608 95.6211 22.744 95.5091 22.856C95.4131 22.952 95.2851 23 95.1251 23H93.9971C93.8211 23 93.6851 22.952 93.5891 22.856C93.4931 22.744 93.4451 22.608 93.4451 22.448V12.872L94.1171 12.848L86.7971 22.64C86.7331 22.72 86.6531 22.8 86.5571 22.88C86.4611 22.96 86.3331 23 86.1731 23H85.0931ZM98.5901 23C98.4301 23 98.2941 22.944 98.1821 22.832C98.0701 22.72 98.0141 22.584 98.0141 22.424V21.536C98.0141 21.2 98.1821 21.024 98.5181 21.008C99.0141 20.992 99.4301 20.76 99.7661 20.312C100.102 19.848 100.358 19.12 100.534 18.128C100.71 17.12 100.798 15.792 100.798 14.144V11.072C100.798 10.912 100.846 10.784 100.942 10.688C101.054 10.576 101.19 10.52 101.35 10.52H108.982C109.142 10.52 109.27 10.576 109.366 10.688C109.478 10.784 109.534 10.912 109.534 11.072V22.448C109.534 22.608 109.478 22.744 109.366 22.856C109.27 22.952 109.142 23 108.982 23H107.83C107.67 23 107.542 22.952 107.446 22.856C107.35 22.744 107.302 22.608 107.302 22.448V12.44H102.982V14.408C102.982 15.944 102.894 17.264 102.718 18.368C102.542 19.456 102.27 20.344 101.902 21.032C101.55 21.704 101.094 22.2 100.534 22.52C99.9901 22.84 99.3421 23 98.5901 23ZM118.224 23.24C117.008 23.24 115.992 23.008 115.176 22.544C114.36 22.08 113.736 21.44 113.304 20.624C112.872 19.792 112.632 18.848 112.584 17.792C112.568 17.52 112.56 17.176 112.56 16.76C112.56 16.328 112.568 15.984 112.584 15.728C112.632 14.656 112.872 13.712 113.304 12.896C113.752 12.08 114.384 11.44 115.2 10.976C116.016 10.512 117.024 10.28 118.224 10.28C119.424 10.28 120.432 10.512 121.248 10.976C122.064 11.44 122.688 12.08 123.12 12.896C123.568 13.712 123.816 14.656 123.864 15.728C123.88 15.984 123.888 16.328 123.888 16.76C123.888 17.176 123.88 17.52 123.864 17.792C123.816 18.848 123.576 19.792 123.144 20.624C122.712 21.44 122.088 22.08 121.272 22.544C120.456 23.008 119.44 23.24 118.224 23.24ZM118.224 21.392C119.216 21.392 120.008 21.08 120.6 20.456C121.192 19.816 121.512 18.888 121.56 17.672C121.576 17.432 121.584 17.128 121.584 16.76C121.584 16.392 121.576 16.088 121.56 15.848C121.512 14.632 121.192 13.712 120.6 13.088C120.008 12.448 119.216 12.128 118.224 12.128C117.232 12.128 116.432 12.448 115.824 13.088C115.232 13.712 114.92 14.632 114.888 15.848C114.872 16.088 114.864 16.392 114.864 16.76C114.864 17.128 114.872 17.432 114.888 17.672C114.92 18.888 115.232 19.816 115.824 20.456C116.432 21.08 117.232 21.392 118.224 21.392ZM127.421 23C127.277 23 127.149 22.952 127.037 22.856C126.941 22.744 126.893 22.624 126.893 22.496V11.072C126.893 10.912 126.941 10.784 127.037 10.688C127.149 10.576 127.285 10.52 127.445 10.52H128.597C128.757 10.52 128.885 10.576 128.981 10.688C129.077 10.784 129.125 10.912 129.125 11.072V21.248L128.501 20.6L135.773 10.88C135.853 10.784 135.941 10.704 136.037 10.64C136.133 10.56 136.253 10.52 136.397 10.52H137.501C137.629 10.52 137.741 10.568 137.837 10.664C137.949 10.76 138.005 10.872 138.005 11V22.448C138.005 22.608 137.949 22.744 137.837 22.856C137.741 22.952 137.613 23 137.453 23H136.325C136.149 23 136.013 22.952 135.917 22.856C135.821 22.744 135.773 22.608 135.773 22.448V12.872L136.445 12.848L129.125 22.64C129.061 22.72 128.981 22.8 128.885 22.88C128.789 22.96 128.661 23 128.501 23H127.421ZM132.509 8.864C131.581 8.864 130.853 8.72 130.325 8.432C129.797 8.144 129.429 7.776 129.221 7.328C129.013 6.864 128.909 6.384 128.909 5.888C128.909 5.76 128.941 5.656 129.005 5.576C129.085 5.48 129.205 5.432 129.365 5.432H130.181C130.325 5.432 130.437 5.48 130.517 5.576C130.597 5.656 130.637 5.76 130.637 5.888C130.637 6.256 130.757 6.6 130.997 6.92C131.253 7.224 131.757 7.376 132.509 7.376C133.277 7.376 133.781 7.224 134.021 6.92C134.261 6.6 134.381 6.256 134.381 5.888C134.381 5.76 134.421 5.656 134.501 5.576C134.581 5.48 134.693 5.432 134.837 5.432H135.677C135.821 5.432 135.933 5.48 136.013 5.576C136.093 5.656 136.133 5.76 136.133 5.888C136.133 6.384 136.021 6.864 135.797 7.328C135.589 7.776 135.221 8.144 134.693 8.432C134.165 8.72 133.437 8.864 132.509 8.864ZM61.64 51C61.464 51 61.328 50.952 61.232 50.856C61.136 50.744 61.088 50.608 61.088 50.448V34.776C61.088 34.6 61.136 34.464 61.232 34.368C61.328 34.256 61.464 34.2 61.64 34.2H62.864C63.04 34.2 63.176 34.256 63.272 34.368C63.384 34.464 63.44 34.6 63.44 34.776V41.4H66.152L70.424 34.584C70.504 34.456 70.608 34.36 70.736 34.296C70.864 34.232 71.032 34.2 71.24 34.2H72.536C72.712 34.2 72.84 34.248 72.92 34.344C73 34.44 73.04 34.552 73.04 34.68C73.04 34.776 73 34.88 72.92 34.992L68.312 42.336L73.376 50.16C73.424 50.224 73.448 50.312 73.448 50.424C73.448 50.584 73.392 50.72 73.28 50.832C73.184 50.944 73.056 51 72.896 51H71.528C71.352 51 71.216 50.968 71.12 50.904C71.04 50.824 70.968 50.736 70.904 50.64L66.248 43.56H63.44V50.448C63.44 50.608 63.384 50.744 63.272 50.856C63.176 50.952 63.04 51 62.864 51H61.64ZM80.513 51.24C79.297 51.24 78.281 51.008 77.465 50.544C76.649 50.08 76.025 49.44 75.593 48.624C75.161 47.792 74.921 46.848 74.873 45.792C74.857 45.52 74.849 45.176 74.849 44.76C74.849 44.328 74.857 43.984 74.873 43.728C74.921 42.656 75.161 41.712 75.593 40.896C76.041 40.08 76.673 39.44 77.489 38.976C78.305 38.512 79.313 38.28 80.513 38.28C81.713 38.28 82.721 38.512 83.537 38.976C84.353 39.44 84.977 40.08 85.409 40.896C85.857 41.712 86.105 42.656 86.153 43.728C86.169 43.984 86.177 44.328 86.177 44.76C86.177 45.176 86.169 45.52 86.153 45.792C86.105 46.848 85.865 47.792 85.433 48.624C85.001 49.44 84.377 50.08 83.561 50.544C82.745 51.008 81.729 51.24 80.513 51.24ZM80.513 49.392C81.505 49.392 82.297 49.08 82.889 48.456C83.481 47.816 83.801 46.888 83.849 45.672C83.865 45.432 83.873 45.128 83.873 44.76C83.873 44.392 83.865 44.088 83.849 43.848C83.801 42.632 83.481 41.712 82.889 41.088C82.297 40.448 81.505 40.128 80.513 40.128C79.521 40.128 78.721 40.448 78.113 41.088C77.521 41.712 77.209 42.632 77.177 43.848C77.161 44.088 77.153 44.392 77.153 44.76C77.153 45.128 77.161 45.432 77.177 45.672C77.209 46.888 77.521 47.816 78.113 48.456C78.721 49.08 79.521 49.392 80.513 49.392ZM89.7103 51C89.5503 51 89.4223 50.952 89.3263 50.856C89.2303 50.76 89.1823 50.632 89.1823 50.472V38.976C89.1823 38.848 89.2303 38.744 89.3263 38.664C89.4383 38.568 89.5503 38.52 89.6623 38.52H90.8863C91.1423 38.52 91.3423 38.648 91.4863 38.904L95.5663 46.536L99.6703 38.904C99.8143 38.648 100.014 38.52 100.27 38.52H101.47C101.598 38.52 101.71 38.568 101.806 38.664C101.902 38.744 101.95 38.848 101.95 38.976V50.472C101.95 50.632 101.902 50.76 101.806 50.856C101.71 50.952 101.59 51 101.446 51H100.27C100.11 51 99.9823 50.952 99.8863 50.856C99.7903 50.76 99.7422 50.632 99.7422 50.472V40.896L100.582 40.992L96.6703 48.384C96.5903 48.544 96.4943 48.688 96.3823 48.816C96.2703 48.944 96.1023 49.008 95.8783 49.008H95.2543C95.0463 49.008 94.8863 48.944 94.7743 48.816C94.6623 48.688 94.5583 48.544 94.4622 48.384L90.6703 41.352L91.4143 41.28V50.472C91.4143 50.632 91.3663 50.76 91.2703 50.856C91.1743 50.952 91.0463 51 90.8863 51H89.7103ZM106.094 51C105.934 51 105.798 50.952 105.686 50.856C105.59 50.744 105.542 50.608 105.542 50.448V39.072C105.542 38.912 105.59 38.784 105.686 38.688C105.798 38.576 105.934 38.52 106.094 38.52H115.622C115.782 38.52 115.91 38.576 116.006 38.688C116.118 38.784 116.174 38.912 116.174 39.072V50.448C116.174 50.608 116.118 50.744 116.006 50.856C115.91 50.952 115.782 51 115.622 51H114.47C114.31 51 114.182 50.952 114.086 50.856C113.99 50.744 113.942 50.608 113.942 50.448V40.44H107.774V50.448C107.774 50.608 107.726 50.744 107.63 50.856C107.534 50.952 107.406 51 107.246 51H106.094ZM119.145 51C118.985 51 118.849 50.944 118.737 50.832C118.625 50.72 118.569 50.584 118.569 50.424V49.536C118.569 49.2 118.737 49.024 119.073 49.008C119.569 48.992 119.985 48.76 120.321 48.312C120.657 47.848 120.913 47.12 121.089 46.128C121.265 45.12 121.353 43.792 121.353 42.144V39.072C121.353 38.912 121.401 38.784 121.497 38.688C121.609 38.576 121.745 38.52 121.905 38.52H129.537C129.697 38.52 129.825 38.576 129.921 38.688C130.033 38.784 130.089 38.912 130.089 39.072V50.448C130.089 50.608 130.033 50.744 129.921 50.856C129.825 50.952 129.697 51 129.537 51H128.385C128.225 51 128.097 50.952 128.001 50.856C127.905 50.744 127.857 50.608 127.857 50.448V40.44H123.537V42.408C123.537 43.944 123.449 45.264 123.273 46.368C123.097 47.456 122.825 48.344 122.457 49.032C122.105 49.704 121.649 50.2 121.089 50.52C120.545 50.84 119.897 51 119.145 51ZM138.635 51.24C136.987 51.24 135.675 50.736 134.699 49.728C133.723 48.704 133.187 47.312 133.091 45.552C133.075 45.344 133.067 45.08 133.067 44.76C133.067 44.424 133.075 44.152 133.091 43.944C133.155 42.808 133.419 41.816 133.883 40.968C134.347 40.104 134.979 39.44 135.779 38.976C136.595 38.512 137.547 38.28 138.635 38.28C139.851 38.28 140.867 38.536 141.683 39.048C142.515 39.56 143.147 40.288 143.579 41.232C144.011 42.176 144.227 43.28 144.227 44.544V44.952C144.227 45.128 144.171 45.264 144.059 45.36C143.963 45.456 143.835 45.504 143.675 45.504H135.371C135.371 45.52 135.371 45.552 135.371 45.6C135.371 45.648 135.371 45.688 135.371 45.72C135.403 46.376 135.547 46.992 135.803 47.568C136.059 48.128 136.427 48.584 136.907 48.936C137.387 49.288 137.963 49.464 138.635 49.464C139.211 49.464 139.691 49.376 140.075 49.2C140.459 49.024 140.771 48.832 141.011 48.624C141.251 48.4 141.411 48.232 141.491 48.12C141.635 47.912 141.747 47.792 141.827 47.76C141.907 47.712 142.035 47.688 142.211 47.688H143.363C143.523 47.688 143.651 47.736 143.747 47.832C143.859 47.912 143.907 48.032 143.891 48.192C143.875 48.432 143.747 48.728 143.507 49.08C143.267 49.416 142.923 49.752 142.475 50.088C142.027 50.424 141.483 50.704 140.843 50.928C140.203 51.136 139.467 51.24 138.635 51.24ZM135.371 43.848H141.947V43.776C141.947 43.056 141.811 42.416 141.539 41.856C141.283 41.296 140.907 40.856 140.411 40.536C139.915 40.2 139.323 40.032 138.635 40.032C137.947 40.032 137.355 40.2 136.859 40.536C136.379 40.856 136.011 41.296 135.755 41.856C135.499 42.416 135.371 43.056 135.371 43.776V43.848ZM147.648 51C147.488 51 147.352 50.952 147.24 50.856C147.144 50.744 147.096 50.608 147.096 50.448V39.072C147.096 38.912 147.144 38.784 147.24 38.688C147.352 38.576 147.488 38.52 147.648 38.52H148.776C148.936 38.52 149.064 38.576 149.16 38.688C149.272 38.784 149.328 38.912 149.328 39.072V43.68H151.512L154.752 38.88C154.832 38.768 154.92 38.68 155.016 38.616C155.112 38.552 155.24 38.52 155.4 38.52H156.648C156.792 38.52 156.912 38.552 157.008 38.616C157.104 38.68 157.152 38.776 157.152 38.904C157.152 38.936 157.136 38.984 157.104 39.048C157.088 39.096 157.064 39.144 157.032 39.192L153.432 44.496L157.512 50.304C157.592 50.4 157.632 50.504 157.632 50.616C157.632 50.744 157.584 50.84 157.488 50.904C157.408 50.968 157.296 51 157.152 51H155.688C155.544 51 155.424 50.968 155.328 50.904C155.232 50.84 155.144 50.752 155.064 50.64L151.536 45.624H149.328V50.448C149.328 50.608 149.272 50.744 149.16 50.856C149.064 50.952 148.936 51 148.776 51H147.648ZM164.418 51.24C163.282 51.24 162.298 51.024 161.466 50.592C160.65 50.144 160.018 49.512 159.57 48.696C159.122 47.864 158.882 46.872 158.85 45.72C158.834 45.48 158.826 45.16 158.826 44.76C158.826 44.36 158.834 44.04 158.85 43.8C158.882 42.648 159.122 41.664 159.57 40.848C160.018 40.016 160.65 39.384 161.466 38.952C162.298 38.504 163.282 38.28 164.418 38.28C165.346 38.28 166.138 38.408 166.794 38.664C167.466 38.92 168.018 39.248 168.45 39.648C168.882 40.048 169.202 40.48 169.41 40.944C169.634 41.408 169.754 41.848 169.77 42.264C169.786 42.424 169.738 42.552 169.626 42.648C169.514 42.744 169.378 42.792 169.218 42.792H168.066C167.906 42.792 167.786 42.76 167.706 42.696C167.626 42.616 167.546 42.488 167.466 42.312C167.178 41.528 166.786 40.976 166.29 40.656C165.794 40.336 165.178 40.176 164.442 40.176C163.482 40.176 162.698 40.472 162.09 41.064C161.498 41.656 161.178 42.608 161.13 43.92C161.114 44.496 161.114 45.056 161.13 45.6C161.178 46.928 161.498 47.888 162.09 48.48C162.698 49.056 163.482 49.344 164.442 49.344C165.178 49.344 165.794 49.184 166.29 48.864C166.786 48.544 167.178 47.992 167.466 47.208C167.546 47.032 167.626 46.912 167.706 46.848C167.786 46.768 167.906 46.728 168.066 46.728H169.218C169.378 46.728 169.514 46.776 169.626 46.872C169.738 46.968 169.786 47.096 169.77 47.256C169.754 47.592 169.682 47.936 169.554 48.288C169.426 48.64 169.218 49 168.93 49.368C168.658 49.72 168.314 50.04 167.898 50.328C167.482 50.6 166.978 50.824 166.386 51C165.81 51.16 165.154 51.24 164.418 51.24Z" fill="white"/>
<path d="M0.125531 16.9446C-0.0379492 17.5673 0.0271533 18.0645 0.0257066 18.5542C0.0155795 20.57 0.0430665 22.5858 0.0112384 24.6001C-0.00293847 24.8316 0.0348566 25.0633 0.121681 25.2773C0.208506 25.4912 0.342015 25.6816 0.511806 25.8335C3.90294 29.0558 7.29263 32.2801 10.6809 35.5063C11.6531 36.4321 12.6238 37.3608 13.5931 38.2926C13.8564 38.5464 14.017 40.4517 13.8203 40.7981C13.6235 41.1446 13.4919 40.831 13.3863 40.7354C11.8108 39.2423 10.2483 37.7297 8.67716 36.229C5.85314 33.5333 3.02478 30.8376 0.19208 28.142C-0.0567579 28.3779 0.0199214 28.6646 0.0184747 28.9199C0.0184747 31.1597 0.0329411 33.3994 0.00400653 35.6392C-0.0109938 35.8464 0.0311924 36.0536 0.125677 36.2371C0.220162 36.4205 0.363076 36.5725 0.53785 36.6755C4.77677 39.5882 9.01328 42.5044 13.2474 45.424C13.7856 45.7943 14.1313 47.0725 13.8579 47.7295C13.6713 48.1774 13.3805 47.8639 13.2184 47.7579C12.2781 47.1367 11.3623 46.4737 10.4349 45.8287C7.18365 43.572 3.93429 41.3133 0.686863 39.0526C0.520489 38.9362 0.358453 38.7883 0.177612 38.8525C-0.103054 38.9526 0.0329385 39.2393 0.0329385 39.4408C0.0228114 41.2073 0.032942 42.9722 0.0184747 44.7386C0.0184747 45.206 0.15157 45.4703 0.588482 45.7122C4.784 48.0192 8.96361 50.3754 13.1635 52.6824C13.7147 52.981 13.9765 53.3259 13.8868 53.9516C13.7971 54.5772 14.0865 54.6982 14.6319 54.6698C19.8449 54.3831 25.0604 54.1029 30.2783 53.8291C34.9483 53.5813 39.6155 53.3274 44.287 53.1079C44.8266 53.0825 44.9872 52.9258 44.9756 52.3778C44.9467 50.9115 44.9597 49.4437 44.9756 47.9759C44.9756 47.4846 44.8743 47.2367 44.3116 47.3263C43.1715 47.5055 42.0228 47.6354 40.8756 47.7579C36.6135 48.2128 32.3505 48.6607 28.0865 49.1017C25.0223 49.4257 21.9524 49.699 18.8983 50.0992C17.495 50.2843 16.0772 50.3246 14.6883 50.6068C14.0908 50.7293 13.8738 50.5113 13.8854 49.8722C13.9071 48.7732 13.8724 48.7523 14.9603 48.6299C17.6151 48.3312 20.2741 48.0595 22.9289 47.7579C24.9355 47.5294 26.945 47.3323 28.9516 47.1128C30.7629 46.9142 32.5685 46.7276 34.3841 46.5155C36.2923 46.2975 38.2078 46.1527 40.1074 45.9033C41.5541 45.7137 43.0225 45.639 44.4707 45.4076C44.8237 45.3523 44.9785 45.2314 44.9756 44.8536C44.964 43.1619 44.9756 41.4701 44.9756 39.7768C44.9756 39.4185 44.8917 39.2482 44.462 39.3199C41.3979 39.8291 38.325 40.28 35.2637 40.7996C32.1185 41.3342 28.969 41.8284 25.8195 42.3316C23.3398 42.7288 20.863 43.1454 18.3833 43.5426C17.1261 43.7442 15.8703 43.9637 14.6218 44.1877C14.0561 44.2892 13.8912 44.0951 13.8984 43.5307C13.9259 42.3615 13.9114 42.3944 15.0558 42.2062C17.7742 41.7583 20.4839 41.264 23.2023 40.8101C25.2914 40.4607 27.3877 40.1561 29.4782 39.8141C31.8523 39.4259 34.2221 39.0138 36.5947 38.6196C37.4627 38.4703 38.3467 38.3643 39.2205 38.2224C41.0391 37.9238 42.8562 37.6177 44.6747 37.3265C44.98 37.2772 44.9785 37.0458 44.9785 36.8263C44.9785 34.6373 44.9785 32.4483 44.9785 30.2563C44.9785 29.8293 44.8599 29.7068 44.4128 29.8083C42.3527 30.2906 40.3114 30.8536 38.2671 31.3956C36.8566 31.7734 35.4272 32.072 34.0137 32.4408C32.2632 32.8888 30.5315 33.4293 28.7722 33.834C26.6455 34.3222 24.5434 34.9076 22.4327 35.4556C20.4883 35.9602 18.5496 36.4844 16.6067 36.9876C15.8689 37.1787 15.1223 37.3325 14.3816 37.5087C14.3252 37.5294 14.2638 37.5309 14.2065 37.5129C14.1491 37.4949 14.099 37.4583 14.0633 37.4086C13.774 36.9801 13.9187 36.4948 13.9187 36.0334C13.9187 35.6765 14.208 35.5496 14.5075 35.4765C16.6776 34.9389 18.8477 34.4208 21.0047 33.8638C23.8606 33.1292 26.7063 32.3587 29.5593 31.6166C31.4472 31.1253 33.3482 30.6848 35.229 30.1697C37.3991 29.5724 39.5865 29.1095 41.7393 28.463C42.6218 28.1987 43.5376 28.015 44.4389 27.7926C44.8107 27.7 44.9727 27.585 44.9698 27.1744C44.9583 25.1596 44.9583 23.1448 44.9698 21.13C44.9698 20.6716 44.8252 20.5581 44.4085 20.7C41.9563 21.5302 39.4997 22.3424 37.0461 23.1741C33.2759 24.4463 29.5067 25.7195 25.7384 26.9937C24.4566 27.4252 23.1445 27.7702 21.8786 28.251C19.8416 29.0244 17.7453 29.6112 15.701 30.3593C15.3485 30.5063 14.9864 30.6276 14.6174 30.7222C13.8941 30.8715 13.8333 31.2761 13.8593 31.8868C13.8767 32.2825 14.085 32.8903 13.6771 33.0336C13.3125 33.1635 13.1085 32.5498 12.8597 32.2512C8.87247 27.4551 4.88913 22.6485 0.909657 17.8316C0.681073 17.5538 0.435132 17.291 0.125531 16.9446Z" fill="#FEBD00"/>
<path d="M41.2402 0.0104522H38.8068C35.7947 0.0104522 32.7811 0.0179181 29.769 0.0104522C29.2927 0.00408151 28.828 0.161702 28.4482 0.458406C25.3464 2.70863 22.2272 4.92899 19.1153 7.16577C17.6425 8.22443 16.1842 9.304 14.7129 10.3657C14.5277 10.4985 14.331 10.7315 14.0807 10.6031C13.8304 10.4747 13.9447 10.1626 13.8912 9.93263C13.5628 8.52158 14.6435 8.0348 15.4739 7.43604C18.6827 5.12459 21.9162 2.84899 25.1265 0.542024C25.2523 0.45094 25.4824 0.350897 25.4578 0H23.6928C16.0772 0 8.46014 0.0149318 0.844556 0C0.158806 0 0.00545449 0.222483 0.00979468 0.880975C0.0343891 4.98573 0.0257087 9.09346 0.00979468 13.1937C-0.0103922 13.5602 0.10902 13.9203 0.342541 14.1972C2.69107 17.0113 5.03236 19.8339 7.36642 22.665C9.38605 25.0999 11.4076 27.5317 13.4311 29.9606C13.5194 30.0682 13.5324 30.2593 13.7205 30.2444C13.8753 30.2309 13.91 30.0846 13.8854 29.9636C13.6322 28.6855 14.6796 28.6377 15.3683 28.4406C17.4588 27.8433 19.4842 27.0534 21.5487 26.3875C23.5192 25.7529 25.5142 25.1929 27.4528 24.4732C30.0714 23.5071 32.7305 22.6814 35.3621 21.7631C37.3441 21.0703 39.3377 20.4118 41.3299 19.7473C42.3426 19.4113 43.3553 19.1127 44.368 18.7618C44.7224 18.6394 45.0089 18.4632 44.9973 17.9256C44.9554 15.9621 44.9626 13.9971 44.9973 12.032C45.006 11.4348 44.789 11.384 44.3333 11.5766C41.9288 12.592 39.5234 13.6039 37.117 14.6123L28.5899 18.1959C24.7156 19.8225 20.8408 21.447 16.9655 23.0696C16.1553 23.4086 15.3393 23.7326 14.5219 24.0536C14.0966 24.2194 13.9172 24.0954 13.9143 23.5848C13.9143 22.3066 13.881 22.2887 14.9835 21.8004C17.0089 20.9045 19.069 20.0848 21.1263 19.262C23.0808 18.4826 24.9948 17.5956 26.9363 16.7804C28.6579 16.0562 30.3955 15.3753 32.12 14.6615C34.0875 13.8463 36.0478 13.019 38.0111 12.1948C40.1088 11.3183 42.2066 10.4373 44.3043 9.56979C44.708 9.40404 44.9973 9.2383 44.993 8.6918C44.9684 6.10561 44.9771 3.51793 44.993 0.927266C44.993 0.379269 44.9597 0.22995 44.3781 0.559942C41.5353 2.17407 38.7069 3.81507 35.8757 5.45011C30.6052 8.49171 25.3059 11.4781 20.021 14.4913C18.24 15.5067 16.4649 16.5325 14.6854 17.5523C14.0648 17.9077 14.0329 17.8211 13.8926 17.1238C13.612 15.7321 14.6044 15.332 15.4594 14.8571C20.6821 11.9285 25.8812 8.9546 31.0566 5.93539C34.2148 4.10326 37.4222 2.35176 40.605 0.559942C40.7627 0.461393 40.9074 0.292663 41.2402 0.0104522Z" fill="#FEBD00"/>
<path d="M29.0384 59.9631C34.1237 59.9631 39.2089 59.9556 44.2942 59.9736C44.8237 59.9736 45.0176 59.8362 44.9988 59.2643C44.9563 58.0966 44.9525 56.928 44.9872 55.7583C45.0031 55.161 44.8425 54.9147 44.2161 54.9759C41.842 55.2118 39.4534 55.2014 37.0779 55.3626C33.5956 55.5985 30.1105 55.7285 26.6296 55.9479C24.5854 56.0764 22.5253 56.0047 20.5013 56.2645C18.4773 56.5243 16.4606 56.2779 14.4626 56.6423C14.1646 56.696 13.8738 56.5168 13.9317 56.2182C14.1169 55.2611 13.4412 55.0043 12.8437 54.6728C8.80447 52.432 4.76423 50.1922 0.723032 47.9535C0.15302 47.6369 0.0257096 47.7026 0.0242629 48.385C0.0170292 49.9274 0.0242629 51.4699 0.0242629 53.0139C0.0242629 54.4682 0.0474105 54.4189 1.32632 54.9386C4.39628 56.1809 7.47348 57.4307 10.5058 58.782C12.1927 59.5286 13.8521 60.0408 15.7358 59.9975C20.1671 59.8929 24.6042 59.9631 29.0384 59.9631Z" fill="#FEBD00"/>
<path d="M4.10983 59.9706H7.50096C7.63406 59.9706 7.83227 60.0676 7.87277 59.875C7.92052 59.66 7.7281 59.6466 7.56173 59.5764C5.64915 58.7715 3.7467 57.9428 1.83991 57.1246C1.38853 56.9305 0.934741 56.7413 0.478538 56.5572C0.122643 56.4153 0.0445192 56.6766 0.0445192 56.9364C0.0300519 57.8055 0.0445192 58.673 0.0445192 59.542C0.0445192 60.0199 0.384498 59.9467 0.656483 59.9497C1.81387 59.9586 2.96257 59.9497 4.11706 59.9497L4.10983 59.9706Z" fill="#FEBD00"/>
</svg>
