<svg width="60" height="48" viewBox="0 0 60 48" fill="none" xmlns="http://www.w3.org/2000/svg">
<path d="M13.1315 10.1802C16.1698 10.1802 19.3908 11.4812 21.9874 15.5131C23.3086 17.5575 27.7441 24.491 27.8127 24.6161C27.8888 24.7186 27.9269 24.8437 27.9307 24.9727C27.9269 25.1054 27.885 25.2344 27.8089 25.3444C27.7213 25.4658 24.0396 31.2348 23.9406 31.3941C23.8949 31.4776 23.8226 31.5496 23.7388 31.5989C23.6551 31.6482 23.5599 31.6748 23.4609 31.6748C23.3657 31.6748 23.2743 31.6482 23.1906 31.5951C23.1106 31.5458 23.0459 31.47 23.004 31.3865C22.9126 31.2576 15.9261 20.0836 14.5212 17.8002C13.1163 15.5207 11.304 13.8177 8.42186 13.8177C7.80887 13.8177 7.62231 13.5066 7.62231 13.1577C7.62231 12.2967 9.08433 10.1802 13.1277 10.1802H13.1315Z" fill="#FEBD00"/>
<path d="M23.2286 4.12671C23.5028 4.14568 23.7731 4.07361 24.0053 3.92569C24.2338 3.77776 24.4127 3.55777 24.5041 3.29985C25.0257 2.30231 25.8138 1.47166 26.7809 0.887547C27.7441 0.307228 28.8521 0 29.9791 0C31.106 0 32.214 0.307228 33.1772 0.887547C34.1405 1.46787 34.9286 2.30231 35.454 3.29985C35.5492 3.55777 35.7243 3.77776 35.9528 3.92569C36.1812 4.07361 36.4554 4.14568 36.7295 4.12671C39.8972 4.12671 42.4862 6.37592 42.4862 7.71103C42.4862 8.37101 41.9722 8.67823 41.2602 8.80719C38.8616 9.21683 37.5785 10.1423 35.6863 13.0477C33.6075 16.2907 30.6606 20.827 30.5121 21.066C30.2684 21.4225 30.1314 21.4566 29.96 21.4566C29.7887 21.4566 29.6592 21.4187 29.427 21.066C29.2671 20.827 26.3583 16.2907 24.2528 13.0553C22.4101 10.1613 21.0813 9.22063 18.6789 8.81099C17.9745 8.68203 17.4529 8.3748 17.4529 7.71483C17.4757 6.37592 20.08 4.13051 23.2286 4.13051V4.12671Z" fill="#FEBD00"/>
<path d="M23.6132 47.9996C22.7223 47.9996 21.8466 47.772 21.0737 47.332C20.3008 46.8921 19.6573 46.2586 19.2081 45.4925C19.2081 45.4925 7.31772 26.7098 5.70721 24.1951C3.58271 20.7815 2.85932 19.7839 0.9328 19.7839C0.17133 19.7839 0 19.3629 0 18.9723C0 17.8761 1.7628 16.2186 4.96478 16.2186C7.37864 16.2186 10.1885 17.1592 12.6176 21.0204C12.6176 21.0204 18.557 30.3435 22.9888 37.2542C23.1563 37.5159 23.2896 37.6752 23.5523 37.6752C23.815 37.6752 24.0015 37.4173 24.0967 37.2542C26.2821 33.7799 36.6115 17.5575 37.944 15.5169C40.5406 11.485 43.7502 10.184 46.7999 10.184C50.8433 10.184 52.3244 12.3005 52.3244 13.1615C52.3244 13.5104 52.134 13.8215 51.521 13.8215C48.6351 13.8215 46.8266 15.5283 45.4255 17.804C44.0244 20.0798 29.0501 43.8843 28.0297 45.5038C27.5804 46.2738 26.937 46.911 26.1603 47.3472C25.3836 47.7872 24.5041 48.011 23.6132 47.9996Z" fill="#FEBD00"/>
<path d="M59.0634 19.7839C57.1369 19.7839 56.4173 20.7815 54.289 24.1951C52.7127 26.7098 40.8186 45.4925 40.8186 45.4925C40.3693 46.2586 39.7259 46.8921 38.953 47.332C38.1801 47.772 37.3044 48.0034 36.4173 47.9996C35.6025 47.9996 34.7992 47.8099 34.072 47.4458C33.3448 47.0779 32.7127 46.5469 32.233 45.8907C32.0845 45.739 31.9893 45.5456 31.9551 45.3332C31.9893 45.1207 32.0845 44.9235 32.233 44.7642C32.332 44.5973 47.3825 21.0204 47.3825 21.0204C49.8382 17.1592 52.629 16.2186 55.0352 16.2186C58.2372 16.2186 60 17.8761 60 18.9723C60 19.3629 59.8211 19.7839 59.0672 19.7839H59.0634Z" fill="#FEBD00"/>
</svg>
